Patient4_TMGait_0pt5_02_right_32_GRF.mot
version=1
nRows=78
nColumns=19
inDegrees=no
endheader
time	F1x	F1y	F1z	M1x	M1y	M1z	F2x	F2y	F2z	M2x	M2y	M2z	EC1x	EC1y	EC1z	EC2x	EC2y	EC2z
41.82	-10.559	720.1869	57.9019	-257.1779	-57.4019	682.757	-1.7131	16.7878	0.38928	3.3466	-0.70129	17.7068	-0.0592	0.0182	-0.0073	-0.0462	0.0165	0.9585
41.8333	-7.9828	721.1084	57.8348	-257.5256	-55.824	682.6881	-1.2704	12.2931	0.018069	2.7234	-0.19462	12.9833	-0.0592	0.0182	-0.0073	-0.0462	0.0165	0.9585
41.8466	-5.1184	722.6694	57.5037	-258.0721	-53.8597	682.2944	-0.91597	8.5079	-0.20383	2.1759	0.15224	8.9929	-0.0592	0.0182	-0.0073	-0.0462	0.0165	0.9585
41.8599	-2.1586	725.0146	56.9009	-258.8674	-51.6106	681.7637	-0.66254	5.6598	-0.3129	1.7548	0.3617	5.9745	-0.0592	0.0182	-0.0073	-0.0462	0.0165	0.9585
41.8731	0.74693	728.1444	56.0628	-259.9157	-49.1903	681.2486	-0.50592	3.7315	-0.348	1.4664	0.47029	3.9225	-0.0592	0.0182	-0.0073	-0.0462	0.0165	0.9585
41.8864	3.5123	731.9401	55.0755	-261.1797	-46.7194	680.8174	-0.43286	2.5742	-0.33783	1.2894	0.51461	2.6902	-0.0592	0.0182	-0.0073	-0.0462	0.0165	0.9585
41.8997	6.1179	736.2442	54.0112	-262.6095	-44.2746	680.4941	-0.42374	1.9763	-0.30241	1.1864	0.52444	2.0538	-0.0592	0.0182	-0.0073	-0.0462	0.0165	0.9585
41.913	8.6055	740.8919	52.9589	-264.1511	-41.9231	680.2628	-0.47199	1.7113	-0.26006	1.1125	0.52527	1.7697	-0.0592	0.0182	-0.0073	-0.0462	0.0165	0.9585
41.9263	11.044	745.7508	51.9773	-265.7578	-39.6887	680.1056	-0.5636	1.5493	-0.21938	1.0169	0.52924	1.58	-0.0592	0.0182	-0.0073	-0.0462	0.0165	0.9585
41.9396	13.5219	750.6994	51.1333	-267.3825	-37.5951	679.9786	-0.68599	1.2827	-0.19667	0.84772	0.55233	1.2686	-0.0592	0.0182	-0.0073	-0.0462	0.0165	0.9585
41.9529	16.1215	755.6028	50.4667	-268.9694	-35.6442	679.8045	-0.81467	0.72162	-0.19014	0.55192	0.58619	0.63973	-0.0592	0.0182	-0.0073	-0.0462	0.0165	0.9585
41.9661	18.8917	760.2557	50.0239	-270.4342	-33.8568	679.4364	-0.91776	-0.28521	-0.20594	0.083147	0.62472	-0.46331	-0.0592	0.0182	-0.0073	-0.0462	0.0165	0.9585
41.9794	21.8634	764.3604	49.8354	-271.6572	-32.2483	678.6448	-0.94625	-1.8193	-0.23256	-0.58356	0.64047	-2.1281	-0.0592	0.0182	-0.0073	-0.0462	0.0165	0.9585
41.9927	25.0188	767.5331	49.921	-272.4857	-30.8422	677.1435	-0.8407	-3.8528	-0.26523	-1.434	0.60543	-4.3241	-0.0592	0.0182	-0.0073	-0.0462	0.0165	0.9585
42.006	28.3172	769.3091	50.2781	-272.7383	-29.6518	674.5727	-0.52569	-6.1976	-0.27815	-2.3922	0.46355	-6.8552	-0.0592	0.0182	-0.0073	-0.0462	0.0165	0.9585
42.0193	31.6891	769.2371	50.8981	-272.242	-28.6971	670.5879	0.093346	-8.4388	-0.2505	-3.2922	0.15772	-9.2731	-0.0592	0.0182	-0.0073	-0.0462	0.0165	0.9585
42.0326	35.0422	767.0245	51.749	-270.8879	-27.9843	664.9884	1.1054	-9.8422	-0.14674	-3.8411	-0.38094	-10.7779	-0.0592	0.0182	-0.0073	-0.0462	0.0165	0.9585
42.0459	38.2949	762.6563	52.7947	-268.6748	-27.5156	657.7992	2.5783	-9.2737	0.059835	-3.5856	-1.2045	-10.1443	-0.0592	0.0182	-0.0073	-0.0462	0.0165	0.9585
42.0591	41.3605	756.368	53.9742	-265.7023	-27.2704	649.2512	4.5152	-5.1506	0.40264	-1.893	-2.3426	-5.657	-0.0592	0.0182	-0.0073	-0.0462	0.0165	0.9585
42.0724	44.1784	748.4991	55.2087	-262.1182	-27.2055	639.6366	6.8088	4.5143	0.89071	2.0344	-3.7522	4.8373	-0.0592	0.0182	-0.0073	-0.0462	0.0165	0.9585
42.0857	46.6994	739.2827	56.3687	-258.041	-27.2259	629.1404	9.1618	21.9447	1.5171	9.0911	-5.289	23.7541	-0.0592	0.0182	-0.0073	-0.0462	0.0165	0.9585
42.099	48.8863	728.6048	57.2966	-253.4741	-27.2116	617.65	11.0021	49.2428	2.2221	20.1209	-6.6417	53.3888	-0.0592	0.0182	-0.0073	-0.0462	0.0165	0.9585
42.1123	50.6867	715.8519	57.7854	-248.2493	-27.0023	604.6479	11.4193	87.7281	2.8802	35.6533	-7.2951	95.1939	-0.0592	0.0182	-0.0073	-0.0462	0.0165	0.9585
42.1256	52.0255	699.8985	57.617	-242.0192	-26.4396	589.2024	9.2257	137.0561	3.2894	55.5462	-6.557	148.8187	-0.0592	0.0182	-0.0073	-0.0462	0.0165	0.9585
42.1389	52.7914	679.2891	56.5479	-234.3178	-25.3602	570.1096	3.4292	194.2315	3.217	78.5872	-3.7973	210.9956	-0.0592	0.0182	-0.0073	-0.0462	0.0165	0.9585
42.1521	52.8453	652.6034	54.3967	-224.6834	-23.6697	546.2078	-5.5007	253.3097	2.24	102.3686	1.2014	275.2018	-0.0592	0.0182	-0.0073	-0.0462	0.0165	0.9585
42.1654	52.0629	618.9286	51.0839	-212.8181	-21.3566	516.7491	-15.2162	307.4736	0.030225	124.1263	7.7867	333.8453	-0.0592	0.0182	-0.0073	-0.0462	0.0165	0.9585
42.1787	50.3253	578.2035	46.732	-198.6893	-18.5684	481.6978	-23.6556	352.0927	-3.1268	142.0059	14.7658	381.6215	-0.0592	0.0182	-0.0073	-0.0462	0.0165	0.9585
42.192	47.616	531.1817	41.6359	-182.5214	-15.5488	441.682	-29.8757	386.6377	-6.8753	155.7991	21.3524	417.808	-0.0592	0.0182	-0.0073	-0.0462	0.0165	0.9585
42.2053	44.0043	479.2494	36.1745	-164.7447	-12.5701	397.8593	-33.7257	413.6415	-10.5795	166.5488	26.8312	445.1498	-0.0592	0.0182	-0.0073	-0.0462	0.0165	0.9585
42.2186	39.6351	424.1857	30.6772	-145.927	-9.832	351.6959	-35.5489	436.7547	-13.8917	175.738	30.9871	467.6845	-0.0592	0.0182	-0.0073	-0.0462	0.0165	0.9585
42.2319	34.6612	367.9237	25.3971	-126.6935	-7.471	304.7797	-35.7489	459.4016	-16.5385	184.7564	33.7446	489.1181	-0.0592	0.0182	-0.0073	-0.0462	0.0165	0.9585
42.2451	29.2122	312.3039	20.5074	-107.653	-5.5716	258.6104	-34.8051	484.2377	-18.6389	194.6517	35.4451	512.3555	-0.0592	0.0182	-0.0073	-0.0462	0.0165	0.9585
42.2584	23.3997	258.9872	16.1199	-89.3665	-4.1844	214.52	-33.1664	512.8932	-20.403	206.046	36.5229	539.181	-0.0592	0.0182	-0.0073	-0.0462	0.0165	0.9585
42.2717	17.3357	209.4811	12.3066	-72.3503	-3.3317	173.7156	-31.3019	545.8114	-22.2849	219.0677	37.6443	570.1699	-0.0592	0.0182	-0.0073	-0.0462	0.0165	0.9585
42.285	11.2556	165.0699	9.1078	-57.0552	-2.9701	137.1904	-29.6293	582.2592	-24.6708	233.3769	39.3772	604.6662	-0.0592	0.0182	-0.0073	-0.0462	0.0165	0.9585
42.2983	5.4858	126.6986	6.531	-43.8195	-2.9923	105.6654	-28.509	620.6482	-27.8653	248.309	42.1609	641.1091	-0.0592	0.0182	-0.0073	-0.0462	0.0165	0.9585
42.3116	0.3973	94.7669	4.548	-32.7927	-3.2463	79.4087	-28.1969	659.1133	-31.8551	263.1102	46.0603	677.649	-0.0592	0.0182	-0.0073	-0.0462	0.0165	0.9585
42.3249	-3.7275	69.055	3.0951	-23.9082	-3.5798	58.2059	-28.6642	695.8507	-36.3463	277.0822	50.7485	712.457	-0.0592	0.0182	-0.0073	-0.0462	0.0165	0.9585
42.3381	-6.7403	48.9098	2.0895	-16.9436	-3.8703	41.5315	-29.7456	729.3204	-40.8614	289.6379	55.6553	743.997	-0.0592	0.0182	-0.0073	-0.0462	0.0165	0.9585
42.3514	-8.5482	33.4387	1.4315	-11.5959	-4.0079	28.6623	-31.19	758.115	-44.9752	300.2488	60.2375	770.8386	-0.0592	0.0182	-0.0073	-0.0462	0.0165	0.9585
42.3647	-9.1518	21.7649	0.99055	-7.5638	-3.887	18.9109	-32.8105	781.0325	-48.4448	308.453	64.1622	791.7929	-0.0592	0.0182	-0.0073	-0.0462	0.0165	0.9585
42.378	-8.5952	13.1037	0.67378	-4.5768	-3.452	11.6334	-34.4385	797.2077	-51.1887	313.9136	67.2724	806.0234	-0.0592	0.0182	-0.0073	-0.0462	0.0165	0.9585
42.3913	-7.1153	6.8718	0.41855	-2.43	-2.742	6.3624	-35.9061	806.2891	-53.2264	316.4978	69.5263	813.1961	-0.0592	0.0182	-0.0073	-0.0462	0.0165	0.9585
42.4046	-5.2367	2.7354	0.21154	-1.0014	-1.9337	2.8235	-37.0697	808.5496	-54.5686	316.3261	70.8866	813.5983	-0.0592	0.0182	-0.0073	-0.0462	0.0165	0.9585
42.4179	-3.3979	0.30557	0.063283	-0.15618	-1.1948	0.71758	-37.7594	804.8601	-55.2308	313.7633	71.3202	808.076	-0.0592	0.0182	-0.0073	-0.0462	0.0165	0.9585
42.4311	-1.848	-0.85788	-0.040104	0.25577	-0.59768	-0.30193	-37.8612	796.6159	-55.2408	309.3806	70.8269	797.9858	-0.0592	0.0182	-0.0073	-0.0462	0.0165	0.9585
42.4444	-0.6551	-1.1877	-0.093375	0.37946	-0.16879	-0.62173	-37.3231	785.4585	-54.7134	303.8446	69.5181	784.9101	-0.0592	0.0182	-0.0073	-0.0462	0.0165	0.9585
42.4577	0.15835	-1.0182	-0.11971	0.329	0.1099	-0.50008	-36.1896	773.0171	-53.827	297.8068	67.605	770.4283	-0.0592	0.0182	-0.0073	-0.0462	0.0165	0.9585
42.471	0.67123	-0.61634	-0.11542	0.19418	0.2603	-0.17483	-34.5773	760.7396	-52.7861	291.8419	65.3487	755.9497	-0.0592	0.0182	-0.0073	-0.0462	0.0165	0.9585
42.4843	0.93622	-0.14101	-0.10403	0.030644	0.32541	0.23717	-32.6368	749.836	-51.7487	286.4304	62.9745	742.648	-0.0592	0.0182	-0.0073	-0.0462	0.0165	0.9585
42.4976	1.0299	0.30087	-0.083845	-0.12522	0.33356	0.6348	-30.5158	741.2522	-50.86	281.9454	60.6875	731.4388	-0.0592	0.0182	-0.0073	-0.0462	0.0165	0.9585
42.5109	1.0259	0.66567	-0.065665	-0.25877	0.32037	0.9646	-28.3223	735.6022	-50.2231	278.6273	58.6336	722.8979	-0.0592	0.0182	-0.0073	-0.0462	0.0165	0.9585
42.5241	0.95258	0.95671	-0.045522	-0.36875	0.29081	1.2347	-26.134	733.1535	-49.9263	276.5781	56.9309	717.2644	-0.0592	0.0182	-0.0073	-0.0462	0.0165	0.9585
42.5374	0.86689	1.172	-0.030956	-0.45632	0.26225	1.421	-23.9862	733.8563	-49.9889	275.7789	55.6172	714.4651	-0.0592	0.0182	-0.0073	-0.0462	0.0165	0.9585
42.5507	0.75966	1.3397	-0.015463	-0.5291	0.22366	1.5736	-21.8915	737.4207	-50.3991	276.1161	54.6895	714.2107	-0.0592	0.0182	-0.0073	-0.0462	0.0165	0.9585
42.564	0.66674	1.4557	-0.00093478	-0.58499	0.18436	1.6672	-19.8199	743.3515	-51.0741	277.4024	54.0624	716.0106	-0.0592	0.0182	-0.0073	-0.0462	0.0165	0.9585
42.5773	0.57954	1.5204	0.019329	-0.62076	0.13485	1.7064	-17.7394	750.9891	-51.9191	279.3918	53.6335	719.2416	-0.0592	0.0182	-0.0073	-0.0462	0.0165	0.9585
42.5906	0.4938	1.515	0.040351	-0.6269	0.081372	1.6675	-15.6221	759.5353	-52.8153	281.7883	53.2773	723.1717	-0.0592	0.0182	-0.0073	-0.0462	0.0165	0.9585
42.6039	0.41334	1.3973	0.070455	-0.58606	0.017946	1.5018	-13.4556	768.1053	-53.6751	284.2626	52.9006	727.0068	-0.0592	0.0182	-0.0073	-0.0462	0.0165	0.9585
42.6171	0.31347	1.1238	0.099542	-0.47878	-0.051115	1.1769	-11.2412	775.8005	-54.4185	286.4802	52.423	729.9548	-0.0592	0.0182	-0.0073	-0.0462	0.0165	0.9585
42.6304	0.2195	0.61731	0.14035	-0.27847	-0.13121	0.59262	-8.9959	781.8352	-54.9984	288.1466	51.8036	731.3397	-0.0592	0.0182	-0.0073	-0.0462	0.0165	0.9585
42.6437	0.1177	-0.18523	0.18671	0.037818	-0.21636	-0.30407	-6.7544	785.5931	-55.3847	289.0286	51.0191	730.6432	-0.0592	0.0182	-0.0073	-0.0462	0.0165	0.9585
42.657	0.049223	-1.3536	0.24296	0.49163	-0.29523	-1.5868	-4.5427	786.6416	-55.5843	288.9603	50.0787	727.4998	-0.0592	0.0182	-0.0073	-0.0462	0.0165	0.9585
42.6703	0.040821	-2.8918	0.29426	1.084	-0.34071	-3.2473	-2.3703	784.8147	-55.6294	287.8707	49.0081	721.7785	-0.0592	0.0182	-0.0073	-0.0462	0.0165	0.9585
42.6836	0.13569	-4.7179	0.32575	1.7857	-0.32167	-5.199	-0.19651	780.2565	-55.5924	285.8037	47.854	713.6077	-0.0592	0.0182	-0.0073	-0.0462	0.0165	0.9585
42.6969	0.40776	-6.6096	0.31117	2.5131	-0.18593	-7.2116	2.0353	773.4176	-55.549	282.9196	46.6603	703.3872	-0.0592	0.0182	-0.0073	-0.0462	0.0165	0.9585
42.7101	0.92016	-8.1122	0.22678	3.0945	0.11531	-8.7872	4.4061	764.962	-55.5605	279.4634	45.4584	691.704	-0.0592	0.0182	-0.0073	-0.0462	0.0165	0.9585
42.7234	1.7746	-8.5098	0.036863	3.2538	0.65334	-9.1765	6.9806	755.6694	-55.6426	275.7261	44.2463	679.2528	-0.0592	0.0182	-0.0073	-0.0462	0.0165	0.9585
42.7367	3.015	-6.7335	-0.29428	2.5832	1.4841	-7.2346	9.8019	746.3292	-55.7778	272.0057	43.0008	666.7446	-0.0592	0.0182	-0.0073	-0.0462	0.0165	0.9585
42.75	4.664	-1.3782	-0.81163	0.54536	2.6592	-1.4734	12.8928	737.6006	-55.9171	268.5549	41.6803	654.7729	-0.0592	0.0182	-0.0073	-0.0462	0.0165	0.9585
42.7633	6.6361	9.2323	-1.5407	-3.4998	4.1745	9.904	16.2054	729.8877	-55.983	265.5305	40.2378	643.7249	-0.0592	0.0182	-0.0073	-0.0462	0.0165	0.9585
42.7766	8.6937	26.839	-2.4888	-10.219	5.9419	28.7698	19.6682	723.1744	-55.8722	262.9336	38.6166	633.6193	-0.0592	0.0182	-0.0073	-0.0462	0.0165	0.9585
42.7899	10.3843	52.8329	-3.589	-20.1457	7.7098	56.622	23.1583	716.9443	-55.4446	260.5769	36.751	624.0733	-0.0592	0.0182	-0.0073	-0.0462	0.0165	0.9585
42.8031	10.9463	87.6176	-4.694	-33.4336	9.0216	93.9093	26.5382	710.1452	-54.5378	258.0749	34.5659	614.2566	-0.0592	0.0182	-0.0073	-0.0462	0.0165	0.9585
42.8164	9.359	129.6904	-5.5095	-49.5095	9.1676	139.0165	29.6574	701.2677	-52.9805	254.8729	31.9821	602.9585	-0.0592	0.0182	-0.0073	-0.0462	0.0165	0.9585
42.8297	4.9547	175.1078	-5.5653	-66.8499	7.3936	187.7355	32.3587	688.5367	-50.6353	250.3168	28.9518	588.7497	-0.0592	0.0182	-0.0073	-0.0462	0.0165	0.9585
42.843	-1.2474	218.3149	-4.1647	-83.2858	3.3706	234.0798	34.5253	670.2465	-47.4478	243.7767	25.4849	570.2379	-0.0592	0.0182	-0.0073	-0.0462	0.0165	0.9585
